<?xml version="1.0" standalone="no"?>
<!DOCTYPE svg PUBLIC "-//W3C//DTD SVG 20010904//EN"
 "http://www.w3.org/TR/2001/REC-SVG-20010904/DTD/svg10.dtd">
<svg version="1.0" xmlns="http://www.w3.org/2000/svg"
 width="1300.000000pt" height="1248.000000pt" viewBox="0 0 1300.000000 1248.000000"
 preserveAspectRatio="xMidYMid meet">
<metadata>
Created by potrace 1.16, written by Peter Selinger 2001-2019
</metadata>
<g transform="translate(0.000000,1248.000000) scale(0.100000,-0.100000)"
fill="#000000" stroke="none">
<path d="M5215 12383 c-339 -27 -494 -47 -690 -88 -430 -91 -860 -305 -1135
-565 -52 -49 -40 -43 50 27 95 74 236 157 395 234 476 229 1067 331 1732 300
418 -19 645 -52 843 -119 366 -125 636 -271 958 -519 46 -36 86 -63 88 -60 6
6 -145 142 -241 218 -189 148 -389 267 -595 351 -197 80 -453 152 -649 183
-220 34 -581 52 -756 38z"/>
<path d="M6843 11695 c-34 -7 -83 -26 -108 -41 -56 -32 -142 -110 -187 -167
-25 -33 -18 -28 32 21 138 135 326 186 520 140 57 -14 260 -116 347 -175 153
-104 449 -377 537 -495 16 -21 32 -35 37 -32 5 3 8 1 7 -4 -2 -5 18 -42 44
-83 118 -187 165 -326 155 -459 -6 -79 -27 -152 -61 -209 l-20 -34 -18 39
c-10 21 -16 30 -12 19 19 -64 17 -81 -16 -108 -17 -15 -27 -27 -21 -27 6 0 15
-18 22 -39 11 -38 13 -39 35 -25 21 14 23 14 30 -8 12 -39 19 -277 12 -401
-15 -252 -74 -500 -229 -962 -122 -361 -138 -402 -215 -520 -151 -231 -395
-396 -787 -535 -144 -51 -462 -141 -465 -132 -5 17 -74 123 -78 120 -2 -2 5
-36 15 -75 21 -82 31 -70 -83 -109 -67 -23 -86 -24 -86 -2 0 19 -73 143 -77
131 -2 -6 3 -46 12 -89 9 -42 14 -78 12 -80 -8 -9 -150 -24 -225 -24 -259 0
-501 127 -652 343 -18 26 -35 47 -37 47 -8 0 46 -102 86 -163 88 -135 235
-242 368 -269 53 -11 301 0 429 18 41 6 41 6 47 -27 16 -88 37 -281 49 -442 6
-97 16 -173 20 -169 5 5 18 51 28 103 34 161 23 372 -25 535 -6 19 0 22 77 37
46 10 86 17 90 17 10 0 38 -134 38 -182 0 -24 -7 -70 -15 -103 -21 -86 -18
-142 10 -258 25 -103 74 -251 81 -244 2 2 0 48 -6 103 -15 157 -13 300 5 409
19 115 14 168 -22 239 -25 49 -22 65 13 66 6 0 92 23 190 51 629 178 944 389
1126 754 57 113 216 599 267 815 57 239 66 330 65 620 0 195 -5 286 -16 343
l-15 78 34 45 c79 103 108 210 100 373 -8 180 -55 293 -207 496 -176 236 -521
530 -745 635 -212 100 -362 128 -512 95z"/>
<path d="M3183 11600 c-213 -30 -436 -130 -575 -259 -138 -127 -325 -359 -408
-506 l-22 -40 38 45 c74 87 290 303 379 379 112 96 222 170 334 223 117 56
195 76 336 89 142 12 287 -5 386 -45 33 -13 55 -18 49 -11 -18 22 -172 94
-233 109 -76 20 -207 27 -284 16z"/>
<path d="M6494 11351 c-102 -46 -154 -177 -103 -261 32 -53 79 -109 99 -120
17 -9 17 -6 -3 48 -44 119 -23 241 53 309 45 40 19 53 -46 24z"/>
<path d="M3080 11003 c-180 -27 -244 -40 -355 -69 -210 -56 -367 -123 -503
-217 -40 -27 -71 -51 -69 -53 2 -2 33 8 68 22 249 101 559 188 824 230 128 20
351 24 383 6 27 -16 31 1 6 36 -30 44 -64 52 -201 51 -70 -1 -139 -3 -153 -6z"/>
<path d="M4463 10875 c-90 -65 -221 -137 -384 -211 -227 -103 -217 -95 -124
-89 99 7 209 34 298 74 70 32 152 83 175 110 27 33 104 153 100 157 -3 2 -32
-16 -65 -41z"/>
<path d="M3290 10877 c-203 -68 -364 -250 -443 -499 -78 -246 -77 -592 3
-1068 75 -446 98 -537 177 -715 156 -347 492 -702 823 -870 l51 -26 -24 -42
c-105 -179 -159 -448 -137 -679 12 -123 20 -169 29 -164 3 2 6 -12 7 -32 1
-39 30 -119 40 -109 3 3 2 42 -2 86 -4 55 -10 79 -18 74 -8 -5 -8 -3 0 8 7 8
14 79 17 169 8 211 35 367 103 588 l25 82 47 -24 c88 -45 83 -31 72 -206 -8
-145 -33 -296 -75 -458 -9 -35 -15 -68 -12 -75 2 -6 27 37 56 96 64 130 110
301 117 437 7 126 7 124 45 105 58 -30 204 -83 274 -100 42 -10 102 -15 151
-14 70 3 84 0 109 -19 21 -16 41 -22 81 -22 64 0 235 32 286 54 44 19 120 21
151 4 20 -10 21 -10 9 5 -8 9 -34 26 -60 38 -60 30 -168 30 -272 1 -41 -11
-94 -22 -117 -25 l-41 -5 34 30 c19 17 44 44 55 60 l22 30 -43 -22 c-23 -12
-39 -17 -36 -11 7 11 7 11 -69 -23 -59 -27 -181 -29 -285 -6 -103 24 -270 89
-278 109 -15 39 37 185 86 244 22 25 6 21 -35 -10 -42 -32 -109 -130 -118
-174 l-7 -29 -60 32 c-60 33 -60 33 -54 71 l7 39 -23 -26 -23 -26 -65 43
c-257 170 -451 337 -561 482 -142 186 -253 442 -319 735 -41 182 -50 226 -81
400 -24 134 -36 181 -53 200 l-21 25 24 -20 c23 -18 24 -19 18 -2 -4 10 -7 28
-7 40 0 20 -1 19 -28 -6 -24 -23 -28 -24 -28 -8 0 10 5 17 11 15 6 -3 18 3 27
13 14 16 15 31 6 113 -12 117 -4 377 16 487 57 315 206 510 455 594 34 12 61
23 61 25 0 9 -38 2 -100 -19z"/>
<path d="M6839 10859 c-87 -9 -159 -41 -159 -68 0 -26 0 -26 80 1 87 29 309
31 415 5 90 -23 222 -76 315 -127 61 -33 76 -38 89 -28 14 11 14 11 3 -3 -10
-14 -6 -20 30 -44 164 -108 389 -338 439 -449 19 -42 27 -30 17 25 -14 76 -20
86 -102 181 -91 104 -240 230 -360 305 -248 154 -530 228 -767 202z"/>
<path d="M2935 10823 c-103 -12 -232 -37 -242 -45 -17 -13 -17 -80 -1 -96 10
-10 10 -15 1 -20 -23 -14 -25 -57 -4 -84 12 -14 21 -30 21 -35 0 -4 10 -19 21
-33 22 -27 22 -32 -1 59 -6 23 -9 46 -5 49 3 3 22 5 43 5 47 -1 68 10 87 47
20 39 19 70 -2 71 -10 0 23 20 72 44 87 42 89 48 10 38z"/>
<path d="M2310 10684 c0 -38 31 -128 62 -177 17 -26 51 -66 76 -88 76 -67 241
-136 302 -127 19 2 6 13 -63 56 -136 82 -255 192 -354 327 -20 26 -22 28 -23
9z"/>
<path d="M7138 10602 c-47 -115 -49 -158 -10 -195 60 -57 143 -72 211 -36 22
11 45 18 51 14 30 -19 -18 -98 -68 -110 -32 -7 -52 -22 -75 -55 -26 -38 -21
-58 21 -79 34 -17 229 -57 238 -48 2 2 -46 21 -107 42 -61 22 -112 42 -115 46
-2 3 22 16 54 27 66 24 128 76 137 115 4 15 4 43 1 62 -8 40 -6 39 -146 55
-132 15 -140 17 -140 40 0 11 7 47 17 80 9 33 14 62 12 64 -2 2 -18 6 -35 9
-29 6 -33 3 -46 -31z"/>
<path d="M6080 10479 c0 -26 38 -148 64 -206 75 -162 228 -322 409 -427 45
-27 136 -60 144 -52 2 2 -32 30 -74 64 -154 119 -326 313 -458 513 -79 121
-85 128 -85 108z"/>
<path d="M7601 10319 c-44 -22 -81 -69 -81 -102 0 -16 3 -16 43 4 63 33 169
37 281 10 49 -12 92 -19 95 -15 10 10 -60 64 -118 91 -76 36 -163 41 -220 12z"/>
<path d="M3740 10244 c-14 -2 -59 -9 -100 -15 -145 -21 -314 -76 -335 -108 -3
-6 -10 -9 -14 -6 -10 6 -137 -109 -153 -139 -9 -18 -9 -19 3 -11 8 6 7 2 -3
-7 -44 -40 -64 -162 -33 -204 14 -18 15 -18 46 -1 l31 17 -6 -22 c-4 -13 -10
-64 -13 -113 -14 -233 124 -471 314 -541 27 -9 87 -34 135 -55 138 -61 224
-80 378 -86 112 -4 147 -1 207 15 92 25 192 81 239 135 l37 42 -27 -46 c-148
-259 -113 -639 80 -873 94 -114 211 -186 364 -226 176 -46 176 -46 239 -24
l57 20 12 -63 c11 -59 50 -158 58 -150 2 2 -3 38 -11 81 -8 43 -15 92 -15 110
0 18 -5 37 -11 43 -14 14 99 106 191 156 89 48 146 66 275 84 60 8 113 20 118
26 12 20 20 56 14 71 -15 38 -276 45 -433 12 -114 -24 -252 -83 -321 -137 -22
-16 -24 -16 -60 18 -94 86 -250 173 -358 198 -76 18 -101 14 -29 -4 98 -25
249 -118 339 -210 36 -38 57 -51 77 -51 33 0 95 24 119 46 21 19 210 71 287
79 l57 6 -67 -30 c-101 -45 -204 -117 -254 -179 -45 -55 -47 -56 -92 -53 -82
4 -259 49 -323 82 -109 55 -229 188 -301 334 -52 106 -63 155 -63 290 1 148
17 212 90 358 30 59 50 107 45 107 -6 0 -10 -3 -10 -7 -1 -5 -12 -21 -27 -38
-25 -29 -25 -28 4 25 87 160 111 343 67 501 -9 30 -21 86 -28 124 -44 233
-211 362 -533 410 -91 14 -203 17 -263 9z m427 -170 c65 -7 150 -36 203 -69
36 -23 110 -99 110 -113 0 -4 -10 5 -21 21 -45 59 -56 45 -14 -17 60 -89 86
-171 92 -288 9 -156 -25 -280 -108 -394 -62 -85 -158 -145 -265 -168 l-32 -7
5 43 c12 107 -91 290 -243 431 l-61 56 -13 -138 c-14 -158 -5 -249 36 -329 13
-26 24 -48 24 -49 0 -21 -211 52 -350 120 -102 50 -136 73 -187 124 -99 100
-143 207 -143 347 1 127 20 170 105 234 216 162 521 232 862 196z"/>
<path d="M6190 9774 c-135 -20 -208 -52 -285 -125 -46 -43 -117 -149 -100
-149 4 0 26 16 48 36 80 68 228 124 329 124 96 0 160 -21 313 -104 58 -31 411
-217 472 -248 43 -22 57 -43 68 -101 23 -121 141 -58 139 73 -2 99 -54 167
-192 249 -66 40 -235 118 -313 146 l-36 13 -62 -62 c-34 -34 -58 -65 -55 -69
4 -4 5 -7 2 -7 -3 0 -12 8 -19 17 -8 9 -9 14 -3 10 10 -6 132 109 123 117 -18
17 -205 69 -258 72 -35 1 -66 5 -69 8 -6 6 -59 6 -102 0z"/>
<path d="M5691 9377 c-50 -110 -65 -180 -65 -307 0 -125 18 -193 69 -255 l25
-30 26 27 27 26 -22 27 c-28 36 -69 167 -77 247 -7 72 7 176 35 263 11 33 18
61 16 63 -2 3 -18 -25 -34 -61z"/>
<path d="M6187 9261 c-64 -76 -90 -331 -46 -451 35 -97 36 -90 -12 -90 -108 0
-242 37 -315 86 l-37 25 -28 -27 -29 -28 27 -24 c38 -32 135 -77 214 -98 85
-24 321 -24 477 -1 257 39 373 76 502 163 75 50 164 140 154 155 -3 5 -1 9 5
9 12 0 45 59 38 67 -3 2 -13 -8 -24 -22 -118 -172 -255 -235 -608 -280 -65 -8
-131 -15 -145 -15 l-25 0 27 23 c47 40 63 84 62 172 -1 66 -7 94 -33 160 -62
153 -156 234 -204 176z"/>
<path d="M8270 9175 c13 -22 54 -94 93 -160 134 -231 304 -589 414 -870 19
-49 41 -103 48 -120 36 -81 159 -461 212 -650 40 -143 113 -428 118 -456 2
-14 15 -77 29 -140 58 -263 140 -769 165 -1029 16 -162 41 -469 42 -532 1 -32
5 -58 8 -58 3 0 5 -51 4 -112 -1 -104 -1 -108 8 -53 6 35 8 210 5 420 -6 447
-38 787 -110 1185 -37 203 -48 250 -56 245 -4 -3 -14 3 -21 13 -13 16 -13 16
5 2 19 -14 19 -13 12 30 -35 222 -185 715 -334 1100 -92 237 -305 690 -363
772 -10 14 -19 29 -19 33 0 23 -218 354 -264 400 -16 17 -16 14 4 -20z"/>
<path d="M5553 8740 c7 -98 33 -255 47 -279 16 -28 53 72 53 145 0 85 -8 93
-52 52 l-36 -33 38 40 37 41 -28 44 c-16 25 -37 52 -47 60 -18 14 -18 12 -12
-70z"/>
<path d="M3633 8420 c-38 -23 -57 -54 -49 -83 6 -23 63 -97 74 -97 4 0 6 20 4
44 -5 53 11 86 41 86 33 0 67 11 67 21 0 5 -9 18 -20 29 -26 26 -75 26 -117 0z"/>
<path d="M6719 8251 c90 -84 122 -308 46 -319 -26 -3 -104 92 -151 185 l-35
68 6 -50 c14 -113 46 -188 107 -247 36 -35 43 -38 76 -32 107 19 142 77 121
199 -14 81 -56 147 -123 193 -61 41 -90 43 -47 3z"/>
<path d="M3661 7773 c-74 -90 -103 -202 -84 -332 7 -43 18 -94 26 -112 13 -34
14 -32 31 86 10 66 28 181 41 255 12 74 21 136 20 138 -2 2 -17 -14 -34 -35z"/>
<path d="M6703 7103 c5 -121 28 -216 78 -332 19 -44 24 -50 32 -35 14 24 1
215 -18 288 -21 75 -75 196 -88 196 -6 0 -8 -42 -4 -117z"/>
<path d="M4801 7047 c-1 -4 15 -103 33 -220 32 -195 69 -457 95 -682 25 -208
60 -705 62 -870 1 -119 9 -96 33 95 45 358 22 734 -69 1148 -42 188 -151 563
-154 529z"/>
<path d="M5680 6059 c1 -78 74 -167 151 -184 34 -8 33 5 19 -265 -16 -307 -20
-369 -35 -490 -29 -231 -57 -362 -112 -513 -27 -76 -26 -112 8 -203 26 -70 87
-124 139 -124 85 0 177 126 194 267 l6 48 -18 -55 c-37 -110 -89 -181 -147
-200 -44 -14 -69 -2 -94 48 -51 101 -47 200 13 326 70 146 95 265 103 496 l6
165 -34 -30 -34 -30 34 37 34 37 -7 263 c-7 287 -14 388 -27 388 -5 0 -9 -25
-9 -55 0 -60 -7 -66 -36 -34 -10 12 -49 48 -86 81 l-68 60 0 -33z"/>
<path d="M7725 5928 c-333 -33 -632 -200 -734 -410 -73 -150 -63 -376 25 -553
19 -38 32 -61 28 -50 -3 11 -15 58 -26 105 -26 108 -21 251 12 354 l22 68 -34
37 -33 36 36 -33 36 -33 31 53 c61 109 199 231 307 271 157 59 413 129 520
142 38 5 52 10 44 16 -17 11 -113 9 -234 -3z"/>
<path d="M6662 5678 c-66 -237 -115 -468 -151 -715 -15 -102 -13 -115 10 -58
71 176 165 496 219 745 l18 85 -26 28 c-14 15 -29 27 -32 27 -4 0 -21 -51 -38
-112z"/>
<path d="M4793 4965 c-43 -22 -54 -33 -63 -63 -23 -83 -1 -281 39 -345 28 -46
71 -82 110 -96 60 -20 62 -12 12 37 -39 37 -53 60 -67 107 -19 65 -24 172 -11
248 10 60 27 68 151 69 l91 0 -63 29 c-93 43 -136 46 -199 14z"/>
<path d="M7340 4899 c-249 -25 -460 -123 -519 -243 -49 -98 -25 -225 55 -296
31 -26 42 -30 92 -29 31 1 71 5 87 9 25 6 19 8 -28 9 -108 2 -162 63 -160 181
2 208 116 248 908 321 127 11 231 22 233 23 3 4 -318 25 -458 30 -63 2 -158 0
-210 -5z"/>
<path d="M10938 4870 c-64 -22 -145 -68 -197 -111 -20 -16 -39 -29 -43 -29 -4
0 -22 19 -38 42 -33 45 -75 78 -100 78 -8 0 -26 -16 -39 -36 -32 -46 -50 -55
-92 -44 -50 13 -500 49 -679 54 -143 4 -147 4 -50 -4 196 -16 565 -61 652 -80
107 -22 151 -15 189 30 l27 32 46 -50 c84 -90 157 -102 187 -31 15 39 78 75
153 88 112 20 116 17 45 -38 -82 -62 -114 -104 -99 -130 14 -27 62 -60 98 -67
18 -4 59 4 110 20 62 19 92 24 131 19 66 -8 92 -33 34 -33 -48 0 -173 -31
-263 -65 -150 -56 -300 -87 -544 -112 -183 -18 -627 -22 -1481 -14 -225 3
-468 1 -540 -3 -314 -17 -477 -27 -580 -36 -164 -15 -251 -13 -291 6 -64 30
-102 130 -73 187 11 21 11 21 -7 4 -14 -13 -19 -32 -19 -71 0 -46 5 -60 31
-93 63 -77 185 -95 477 -69 222 20 562 20 1132 1 796 -26 868 -27 1115 -16
236 11 448 35 589 67 36 8 140 40 231 71 219 74 271 75 251 5 -9 -31 -8 -33
29 -52 l39 -20 11 21 c7 11 14 53 17 92 5 61 2 79 -17 119 -32 69 -59 83 -155
82 -44 -1 -123 -11 -175 -23 -52 -11 -96 -21 -98 -21 -7 0 83 70 156 120 39
28 72 57 72 66 0 8 -11 26 -25 39 -21 22 -33 25 -92 25 -41 -1 -91 -9 -125
-20z"/>
<path d="M5339 4811 c-50 -16 -67 -31 -90 -77 -30 -64 -31 -189 -1 -254 31
-66 32 -68 97 -84 65 -17 108 -11 159 23 l28 19 -66 -5 c-112 -9 -151 35 -150
177 0 128 29 163 135 163 l60 0 -29 19 c-34 21 -106 31 -143 19z"/>
<path d="M5090 4803 c-35 -14 -88 -65 -112 -110 -35 -64 -42 -110 -28 -176 9
-46 19 -63 60 -101 26 -25 60 -48 75 -52 33 -8 92 1 112 18 14 11 9 14 -36 20
-94 11 -126 66 -120 201 4 64 8 80 29 102 30 32 86 62 137 74 l38 8 -28 12
c-29 11 -101 14 -127 4z"/>
<path d="M6550 4648 c0 -174 -10 -208 -69 -242 l-34 -20 -19 24 c-11 13 -22
38 -25 54 l-7 31 -12 -30 c-11 -25 -13 -26 -14 -9 0 28 -33 103 -36 84 -2 -8
-6 -37 -9 -65 -13 -95 -107 -147 -170 -92 -24 21 -26 29 -33 152 l-7 130 -30
-75 c-24 -59 -30 -89 -30 -145 1 -112 47 -166 143 -167 81 0 116 21 150 92 27
56 30 60 36 37 9 -38 60 -70 113 -71 41 -1 49 3 83 42 48 54 63 113 50 203 -5
35 -14 78 -19 94 -12 39 -51 125 -56 125 -3 0 -5 -69 -5 -152z"/>
<path d="M7182 4665 c-53 -16 -80 -39 -98 -82 -24 -57 -17 -84 45 -179 89
-134 89 -134 172 -134 69 0 115 13 154 44 19 14 14 15 -56 9 -109 -8 -124 -2
-155 60 -14 28 -44 75 -66 104 -31 41 -37 55 -30 70 15 27 61 67 112 96 l45
27 -40 -1 c-22 0 -59 -6 -83 -14z"/>
<path d="M3545 3604 c-537 -30 -921 -75 -1215 -144 -269 -62 -497 -146 -485
-179 5 -12 3 -13 -5 -4 -18 17 -72 -19 -166 -112 -113 -111 -156 -204 -155
-332 1 -201 178 -419 430 -530 136 -61 443 -142 670 -178 40 -7 46 -5 84 31
l42 39 -34 -37 c-19 -21 -33 -40 -30 -42 5 -5 200 -33 289 -42 36 -3 112 -14
170 -24 232 -42 616 -84 906 -101 254 -14 772 -7 989 15 312 31 666 92 879
151 49 14 91 23 93 21 2 -2 -32 -18 -74 -37 -43 -18 -118 -56 -168 -83 -49
-26 -124 -67 -165 -89 -41 -22 -79 -43 -85 -48 -30 -22 -324 -162 -408 -193
-110 -41 -258 -75 -327 -76 -25 0 -99 -7 -165 -15 -248 -31 -714 -30 -1027 2
l-63 6 20 -24 c18 -22 17 -22 -10 2 -25 22 -48 29 -150 43 -122 17 -365 64
-484 93 -46 11 -87 31 -136 65 -202 142 -240 170 -240 178 0 18 -11 18 -12 0
-1 -11 27 -46 73 -89 124 -118 203 -168 304 -191 30 -6 109 -25 175 -41 610
-147 1448 -179 1910 -74 102 23 383 127 420 155 6 4 87 47 180 95 94 49 202
105 242 125 40 21 205 109 367 196 254 136 293 160 283 174 -10 13 -10 13 4 2
14 -11 26 -7 78 23 53 31 60 39 51 55 -8 15 -1 25 42 62 29 23 66 56 83 72
l30 30 -35 -27 c-105 -81 -147 -106 -160 -94 -10 9 -14 9 -17 0 -3 -7 -11 -13
-19 -13 -13 0 -91 -35 -103 -46 -2 -2 4 -14 15 -26 18 -23 18 -23 -8 0 -24 22
-28 23 -54 9 -77 -40 -403 -140 -559 -171 -353 -72 -882 -129 -1160 -125 l-80
2 95 8 c145 14 345 38 438 54 45 8 171 24 280 35 470 49 727 107 954 216 37
17 37 18 20 38 -17 21 -17 21 5 2 23 -19 23 -19 85 19 153 93 298 220 324 282
19 44 18 109 -3 169 -66 197 -492 381 -1166 504 -614 112 -1080 144 -1757 121
-689 -24 -1175 -76 -1510 -162 -63 -17 -146 -37 -184 -45 -38 -8 -107 -32
-154 -54 l-86 -41 20 -20 20 -20 75 31 c82 34 294 94 385 109 33 5 97 17 144
25 579 101 1647 134 2312 71 647 -61 1278 -201 1580 -349 171 -84 252 -168
251 -260 -2 -108 -123 -236 -300 -318 -37 -18 -70 -32 -73 -33 -3 0 -27 -8
-55 -17 -218 -72 -437 -124 -637 -153 l-48 -7 6 31 c12 58 -5 120 -43 162 -42
46 -75 65 -153 89 -52 16 -55 18 -50 46 3 16 5 60 5 97 0 65 -2 70 -32 97 -49
44 -88 47 -200 16 -82 -23 -248 -94 -240 -102 2 -2 45 6 97 16 126 26 241 40
268 33 19 -4 22 -12 22 -52 0 -81 -31 -172 -73 -219 -17 -18 -31 -22 -82 -22
-34 0 -83 7 -109 16 -60 21 -136 94 -162 157 -12 30 -27 49 -39 52 -35 9 -199
25 -247 25 -37 0 -48 4 -48 16 0 8 -14 29 -30 46 -29 29 -34 30 -100 26 -58
-3 -76 -9 -115 -36 l-46 -32 -167 0 c-218 0 -420 -15 -613 -45 -162 -25 -186
-30 -339 -70 -149 -39 -410 -150 -410 -175 0 -4 7 -13 15 -20 12 -10 24 -7 62
16 312 185 695 248 1287 215 106 -6 141 -11 145 -22 2 -8 19 -29 38 -46 31
-30 40 -33 96 -33 66 0 131 23 157 55 14 16 13 17 -5 12 -91 -26 -181 -13
-191 27 -7 30 8 59 45 85 41 30 60 27 131 -20 64 -43 82 -66 61 -79 -14 -8 83
-20 163 -20 28 0 74 -3 103 -6 48 -6 53 -9 63 -39 28 -86 135 -165 234 -172
100 -8 155 13 197 76 l15 24 51 -17 c87 -29 183 -103 183 -141 0 -25 -188 -83
-385 -120 -248 -45 -502 -60 -1035 -60 -318 0 -535 4 -630 13 -167 15 -496 49
-555 58 l-40 6 21 -22 c12 -12 52 -30 90 -40 l69 -19 -55 6 c-52 5 -54 5 -40
-13 14 -18 14 -18 -5 -3 -28 23 -36 25 -268 59 -372 55 -552 104 -771 210
-221 108 -336 273 -324 465 8 123 67 206 208 293 44 27 76 53 72 57 -4 5 -2 5
5 2 6 -4 51 11 100 34 123 56 264 102 428 138 239 52 372 68 1155 138 236 21
933 24 1155 5 616 -53 1033 -130 1460 -269 146 -47 367 -136 445 -180 l45 -24
-35 30 c-44 39 -251 142 -350 174 -499 164 -1028 273 -1550 318 -117 10 -1074
20 -1205 13z m-503 -1404 c189 -25 247 -31 448 -49 118 -11 307 -26 420 -33
l205 -13 -160 -3 c-251 -5 -695 37 -925 87 -97 22 -93 25 12 11z"/>
<path d="M1849 3155 c-64 -51 -130 -133 -161 -203 -17 -36 -22 -67 -22 -137
-1 -103 13 -143 74 -204 64 -64 240 -175 369 -231 71 -31 285 -91 320 -89 9 0
-38 15 -104 33 -316 85 -484 188 -587 358 -35 57 -38 68 -38 137 0 63 5 86 29
136 32 67 113 150 180 185 41 21 42 22 25 41 -9 10 -20 19 -23 19 -3 0 -31
-20 -62 -45z"/>
<path d="M3569 2585 c-15 -8 -30 -22 -34 -32 -14 -34 -32 -158 -24 -161 5 -2
12 -21 15 -42 7 -44 40 -68 70 -52 11 5 43 12 72 15 73 8 117 37 137 91 19 51
14 76 -24 118 -54 61 -160 93 -212 63z m158 -60 c62 -19 77 -34 68 -75 -9 -43
-40 -59 -128 -66 -88 -8 -85 -11 -67 87 14 74 32 82 127 54z"/>
<path d="M4646 2581 c-17 -6 -14 -10 18 -29 41 -24 40 -37 -7 -80 l-24 -23
-32 36 -31 36 0 -45 c0 -59 7 -74 41 -91 42 -22 61 -18 102 21 36 35 64 102
53 129 -12 32 -85 60 -120 46z"/>
<path d="M1206 2501 c-18 -7 -16 -9 12 -19 46 -16 49 -36 14 -77 l-31 -34 -29
34 -30 34 -7 -26 c-8 -33 12 -90 35 -103 70 -37 160 33 160 124 0 26 -6 40
-23 51 -29 19 -76 27 -101 16z"/>
<path d="M1317 2159 c-85 -20 -127 -63 -127 -129 0 -76 155 -139 240 -97 36
17 74 98 66 140 -3 19 -12 41 -19 50 -10 15 -12 10 -12 -29 -1 -38 -5 -50 -30
-71 -24 -21 -35 -24 -72 -19 -46 6 -103 31 -103 45 0 10 72 77 110 103 22 15
23 17 5 16 -11 0 -37 -4 -58 -9z"/>
<path d="M557 1860 c-58 -11 -91 -49 -91 -106 -1 -45 1 -49 42 -78 35 -25 52
-30 97 -30 147 3 244 136 140 195 -35 20 -134 30 -188 19z m168 -39 c18 -36
12 -54 -23 -71 -30 -13 -151 -15 -164 -2 -16 16 4 43 46 64 88 45 121 47 141
9z"/>
<path d="M1775 1860 c-12 -19 -82 -49 -166 -70 -95 -24 -105 -30 -112 -65 -5
-31 27 -68 78 -89 60 -26 199 -39 295 -30 l84 9 30 57 c27 53 28 61 17 97 -10
34 -67 99 -77 89 -2 -2 8 -27 23 -56 30 -62 26 -98 -15 -113 -33 -13 -134 -6
-255 17 l-88 16 48 23 c52 24 119 74 140 105 8 11 12 20 9 20 -3 0 -8 -5 -11
-10z"/>
</g>
</svg>
